<svg width="26" height="26" viewBox="0 0 26 26" fill="none" xmlns="http://www.w3.org/2000/svg">
<path d="M25.1875 18.0781C25.1875 22.9531 20.7594 25.1875 13.0813 25.1875C5.3625 25.1875 0.974998 22.9531 0.974998 18.0781C0.974998 10.9281 25.1875 10.9281 25.1875 18.0781Z" fill="#E7A74F"/>
<path d="M25.1062 14.7063C25.1062 19.5813 20.7188 21.8157 13.0406 21.8157C5.40312 21.8157 0.974998 19.5813 0.974998 14.7063C1.01562 7.59692 25.1062 7.59692 25.1062 14.7063Z" fill="#BA8443"/>
<path d="M0.974998 14.8281C0.974998 12.7969 3.37187 9.99377 13.0813 9.99377C22.7906 9.99377 25.1875 12.8375 25.1875 14.8281C25.1875 18.525 21.775 21.2063 13.0813 21.2063C4.3875 21.2063 0.974998 18.525 0.974998 14.8281Z" fill="#826046"/>
<path d="M1.21875 12.7156C1.21875 10.6844 3.575 7.88123 13.0813 7.88123C22.5875 7.88123 24.9438 10.725 24.9438 12.7156C24.9438 16.4125 21.6125 19.0937 13.0813 19.0937C4.55 19.0937 1.21875 16.4125 1.21875 12.7156Z" fill="#68472C"/>
<path d="M1.3 10.075C1.86875 8.85629 3.37188 8.77504 8.24688 10.8469C13.1219 12.9188 14.0563 14.0157 13.4875 15.275C12.4313 17.5094 9.54688 19.175 5.15938 17.3063C0.771879 15.4375 0.203129 12.35 1.3 10.075Z" fill="#EF4D3C"/>
<path d="M1.70625 8.6937C2.275 7.47495 3.77813 7.39369 8.65313 9.46557C13.5281 11.5374 14.4625 12.6343 13.8938 13.8937C12.8375 16.1281 9.95313 17.7937 5.56563 15.9249C1.17813 14.0562 0.609379 10.9281 1.70625 8.6937Z" fill="#D33B23"/>
<path d="M11.9031 14.0157C11.5781 12.7157 12.7156 11.7813 17.9563 10.6438C23.1969 9.50628 24.6188 9.83128 24.9438 11.1719C25.5531 13.5688 24.3344 16.5344 19.6219 17.55C14.95 18.5657 12.4719 16.4125 11.9031 14.0157Z" fill="#EF4D3C"/>
<path d="M11.375 12.7156C11.05 11.4156 12.1875 10.4812 17.4281 9.34374C22.6687 8.20624 24.0906 8.53124 24.4156 9.87186C25.025 12.2687 23.8062 15.2344 19.0937 16.25C14.4219 17.2656 11.9844 15.1125 11.375 12.7156Z" fill="#D33B23"/>
<path d="M3.94062 12.5531L12.0656 20.3531L20.0281 12.5531H3.94062Z" fill="#FFE62E"/>
<path d="M24.6594 10.5219C24.6594 10.5219 25.025 11.9031 24.6594 12.3094C24.3344 12.675 23.3188 12.2687 22.8719 12.5937C22.4656 12.8781 22.5875 13.975 22.1 14.2187C21.6531 14.4625 20.8 13.7719 20.3125 13.975C19.8656 14.1375 19.7031 15.2344 19.2156 15.3969C18.7281 15.5187 17.9969 14.7062 17.5094 14.7875C17.0219 14.8687 16.6969 15.925 16.1688 16.0062C15.6813 16.0875 15.0719 15.1531 14.5438 15.1937C14.0563 15.2344 13.5688 16.2094 13.0406 16.2094C12.5125 16.2094 12.0656 15.1937 11.5375 15.1937C11.0094 15.1531 10.4406 16.0875 9.9125 16.0062C9.38438 15.925 9.05938 14.9094 8.57188 14.7875C8.04375 14.6656 7.35313 15.5187 6.86563 15.3969C6.37813 15.2344 6.21563 14.1781 5.76875 13.975C5.28125 13.7719 4.3875 14.4625 3.98125 14.2187C3.49375 13.975 3.61563 12.8781 3.20938 12.5937C2.7625 12.2687 1.74688 12.675 1.42188 12.3094C1.05625 11.9031 1.42188 10.5219 1.42188 10.5219H24.6594Z" fill="#8CC63E"/>
<path d="M25.1875 9.50625C25.1875 12.1469 19.7844 13.4469 13.0813 13.4469C6.37812 13.4469 0.974998 12.1469 0.974998 9.50625C0.974998 4.7125 6.37812 0.8125 13.0813 0.8125C19.7844 0.8125 25.1875 4.7125 25.1875 9.50625Z" fill="#E7A74F"/>
<path d="M6.62187 5.8501L5.97187 6.45947L5.3625 5.8501L5.97187 5.24072L6.62187 5.8501Z" fill="#FFC17A"/>
<path d="M9.62813 4.875L9.01875 5.48438L8.40938 4.875L9.01875 4.26562L9.62813 4.875Z" fill="#FFC17A"/>
<path d="M11.375 7.63757L10.725 8.24695L10.1156 7.63757L10.725 7.0282L11.375 7.63757Z" fill="#FFC17A"/>
<path d="M13.4875 5.44385L13.0813 5.8501L12.675 5.44385L13.0813 5.0376L13.4875 5.44385Z" fill="#FFC17A"/>
<path d="M21.0844 7.0282L20.6781 7.43445L20.2719 7.0282L20.6781 6.62195L21.0844 7.0282Z" fill="#FFC17A"/>
<path d="M23.6031 7.43445L23.1969 7.8407L22.7906 7.43445L23.1969 7.0282L23.6031 7.43445Z" fill="#FFC17A"/>
<path d="M18.85 4.46875L18.4437 4.875L18.0375 4.46875L18.4437 4.0625L18.85 4.46875Z" fill="#FFC17A"/>
<path d="M6.45937 3.94067L6.05312 4.34692L5.64687 3.94067L6.05312 3.53442L6.45937 3.94067Z" fill="#FFC17A"/>
<path d="M4.26562 5.8501L3.85938 6.25635L3.45312 5.8501L3.85938 5.44385L4.26562 5.8501Z" fill="#FFC17A"/>
<path d="M6.825 8.5719L6.41875 8.97815L5.97187 8.5719L6.41875 8.16565L6.825 8.5719Z" fill="#FFC17A"/>
<path d="M11.5781 2.31567L11.1719 2.72192L10.725 2.31567L11.1719 1.90942L11.5781 2.31567Z" fill="#FFC17A"/>
<path d="M15.4375 1.90942L15.0312 2.31567L14.625 1.90942L15.0312 1.50317L15.4375 1.90942Z" fill="#FFC17A"/>
<path d="M9.01875 2.72192L8.6125 3.12817L8.20625 2.72192L8.6125 2.31567L9.01875 2.72192Z" fill="#FFC17A"/>
<path d="M20.6781 3.6969L20.2719 4.10315L19.8656 3.6969L20.2719 3.29065L20.6781 3.6969Z" fill="#FFC17A"/>
<path d="M16.25 8.81567L15.6406 9.42505L15.0312 8.81567L15.6406 8.2063L16.25 8.81567Z" fill="#FFC17A"/>
<path d="M15.275 5.6875L14.6656 6.29688L14.0563 5.6875L14.6656 5.07812L15.275 5.6875Z" fill="#FFC17A"/>
<path d="M17.55 3.3313L16.9406 3.94067L16.3312 3.3313L16.9406 2.72192L17.55 3.3313Z" fill="#FFC17A"/>
<path d="M19.3375 5.97192L18.7281 6.5813L18.0781 5.97192L18.7281 5.36255L19.3375 5.97192Z" fill="#FFC17A"/>
<path d="M21.9375 5.07812L21.3281 5.6875L20.6781 5.07812L21.3281 4.46875L21.9375 5.07812Z" fill="#FFC17A"/>
<path d="M19.9469 8.6532L19.3375 9.26257L18.7281 8.6532L19.3375 8.04382L19.9469 8.6532Z" fill="#FFC17A"/>
<path d="M5.07812 7.59692L4.46875 8.2063L3.85938 7.59692L4.46875 6.98755L5.07812 7.59692Z" fill="#FFC17A"/>
</svg>
